<svg id="Layer_1" height="512" viewBox="0 0 512 512" width="512" xmlns="http://www.w3.org/2000/svg" data-name="Layer 1"><path d="m256 16v82a161.334 161.334 0 0 1 82.27 23.03l39.33 34.18c23.27 27.53 36.4 62.01 36.4 100.79h82c0-132.55-107.45-240-240-240z" fill="#4ca987"/><path d="m377.6 155.21-39.33-34.18a161.334 161.334 0 0 0 -82.27-23.03v81.99a76.1 76.1 0 0 1 76.01 76.01h81.99c0-38.78-13.13-73.26-36.4-100.79z" fill="#5fcda4"/><path d="m332.01 256a76.1 76.1 0 0 1 -76.01 76.01v81.99a155.686 155.686 0 0 0 102.21-37.6l17.62-17.5v-.01a156.013 156.013 0 0 0 38.17-102.89z" fill="#4ca987"/><path d="m414 256a156.013 156.013 0 0 1 -38.17 102.89v.01l-17.62 17.5a155.686 155.686 0 0 1 -102.21 37.6v82c132.55 0 240-107.45 240-240z" fill="#5fcda4"/><path d="m332.01 256h-76.01v-76.01a76.1 76.1 0 0 1 76.01 76.01z" fill="#4ca987"/><path d="m256 256h76.01a76.1 76.1 0 0 1 -76.01 76.01z" fill="#5fcda4"/><path d="m256 414v82c-132.55 0-240-107.45-240-240h82c0 87.12 70.88 158 158 158z" fill="#4ca987"/><path d="m202.76 310.19-14.87-19.82a80.146 80.146 0 0 1 -7.9-34.37h-81.99c0 87.12 70.88 158 158 158v-81.99c-21.09 0-39.46-7.89-53.24-21.82z" fill="#5fcda4"/><path d="m179.99 256a80.146 80.146 0 0 0 7.9 34.37l14.87 19.82c13.78 13.93 32.15 21.82 53.24 21.82v-76.01z" fill="#4ca987"/><path d="m105.18 69.3 150.82 186.7v-240a238.948 238.948 0 0 0 -150.82 53.3z" fill="#a5e2fb"/><path d="m208.26 196.9 47.74 59.1h-76.01a75.165 75.165 0 0 1 28.27-59.1z" fill="#5fcda4"/><path d="m156.75 133.14 51.51 63.76a75.165 75.165 0 0 0 -28.27 59.1h-81.99c0-49.98 22.42-93.89 58.75-122.86z" fill="#4ca987"/><path d="m105.18 69.3 51.57 63.84c-36.33 28.97-58.75 72.88-58.75 122.86h-82a239.539 239.539 0 0 1 89.18-186.7z" fill="#5fcda4"/><path d="m359.34 110.37a26.127 26.127 0 1 1 -21.07 10.66 26.136 26.136 0 0 1 21.07-10.66z" fill="#fadf4a"/><path d="m375.83 358.9a12.42 12.42 0 1 1 -8.57-3.44 12.384 12.384 0 0 1 8.57 3.44z" fill="#5fa8ed"/><path d="m194.57 288.42a12.436 12.436 0 1 1 -6.68 1.95 12.3 12.3 0 0 1 6.68-1.95z" fill="#ed6337"/><path d="m135.18 69.3a238.824 238.824 0 0 1 120.82-51.432v-1.868a238.948 238.948 0 0 0 -150.82 53.3l12.58 15.573q8.331-8.191 17.42-15.573z" fill="#69b3c4"/><path d="m117.76 84.873-12.58-15.573a239.539 239.539 0 0 0 -89.18 186.7h30a239.244 239.244 0 0 1 71.76-171.127z" fill="#4ca987"/><path d="m46 256h-30c0 132.55 107.45 240 240 240v-1.863c-118.39-14.764-210-115.747-210-238.137z" fill="#358766"/><g fill="#284268"><path d="m48.618 306.056a6 6 0 0 0 5.12-6.767c-.546-3.94-.943-7.961-1.179-11.951a6 6 0 1 0 -11.979.711c.255 4.3.683 8.638 1.272 12.887a6 6 0 0 0 5.936 5.177 6.148 6.148 0 0 0 .83-.057z"/><path d="m58.552 321.565a6 6 0 1 0 -11.505 3.413 162.547 162.547 0 0 0 31.137 58.107 6 6 0 1 0 9.221-7.679 150.6 150.6 0 0 1 -28.853-53.841z"/><path d="m259.489 10.024a246.422 246.422 0 0 0 -236.508 166.742 6.008 6.008 0 0 0 5.677 7.952h.019a5.969 5.969 0 0 0 5.664-4.028 233.029 233.029 0 0 1 56.2-90.153q6.67-6.669 13.808-12.729l44.026 54.5a161.966 161.966 0 0 0 -56.26 117.692h-70.03q.263-10.383 1.412-20.6a6 6 0 1 0 -11.921-1.338 249.151 249.151 0 0 0 -1.576 27.938 246 246 0 1 0 492 0 246 246 0 0 0 -242.511-245.976zm-103.573 131.626 44.031 54.508a81.156 81.156 0 0 0 -25.734 53.842h-70.089a150.023 150.023 0 0 1 51.792-108.35zm51.606 63.885 35.918 44.465h-57.17a69.188 69.188 0 0 1 21.252-44.465zm42.478 284.388a234 234 0 0 1 -227.923-227.923h70.039c3.1 85.671 72.213 154.786 157.884 157.884zm0-82.047c-79.053-3.085-142.79-66.823-145.876-145.876h70.1a86.4 86.4 0 0 0 6.4 26.835 18.4 18.4 0 0 0 21.348 28.875 78.545 78.545 0 0 0 48.028 20.076zm-61.861-107.026a6.427 6.427 0 1 1 6.426 6.427 6.433 6.433 0 0 1 -6.426-6.427zm61.861 24.908a66.8 66.8 0 0 1 -39.181-16.242 18.393 18.393 0 0 0 -19.7-26.758 75.856 75.856 0 0 1 -4.86-20.758h63.741zm0-86.734-136.321-168.759a233.54 233.54 0 0 1 136.321-48.183zm12-134.89a156.487 156.487 0 0 1 68.075 19.117 32.115 32.115 0 0 0 46.578 40.315c19.328 24.72 30.047 54.383 31.235 86.434h-70.122a82.1 82.1 0 0 0 -75.766-75.766zm77.2 32.376a20.139 20.139 0 1 1 20.139 20.139 20.161 20.161 0 0 1 -20.139-20.139zm-77.2 49.755a70.1 70.1 0 0 1 63.735 63.735h-63.735zm0 75.735h63.735a70.1 70.1 0 0 1 -63.735 63.735zm0 75.766a82.1 82.1 0 0 0 75.766-75.766h70.12a148.713 148.713 0 0 1 -33.286 88.994 18.414 18.414 0 0 0 -24.275 24.144 148.617 148.617 0 0 1 -88.325 32.748zm111.685 30.121a6.427 6.427 0 1 1 -6.427-6.428 6.433 6.433 0 0 1 6.427 6.428zm47.2 54.152a233.68 233.68 0 0 1 -158.885 67.882v-70.029a160.464 160.464 0 0 0 96.4-35.854 18.419 18.419 0 0 0 25.057-24.923 160.552 160.552 0 0 0 36.434-97.115h70.033a232.388 232.388 0 0 1 -69.04 160.039zm-.992-172.039c-1.209-35.16-13.055-67.694-34.492-94.714a32.115 32.115 0 0 0 -48.35-41.9 168.649 168.649 0 0 0 -75.051-21.267v-70.035a233.983 233.983 0 0 1 227.921 227.916z"/></g></svg>